<?xml version="1.0" standalone="no"?>
<!DOCTYPE svg PUBLIC "-//W3C//DTD SVG 20010904//EN"
 "http://www.w3.org/TR/2001/REC-SVG-20010904/DTD/svg10.dtd">
<svg version="1.0" xmlns="http://www.w3.org/2000/svg"
 width="1093.000000pt" height="1426.000000pt" viewBox="0 0 1093.000000 1426.000000"
 preserveAspectRatio="xMidYMid meet">

<g transform="translate(0.000000,1426.000000) scale(0.100000,-0.100000)"
fill="#000000" stroke="none">
<path d="M5440 5948 c-2 -390 -4 -727 -5 -750 0 -46 13 -56 60 -44 36 9 45 60
95 498 27 243 32 220 -42 218 -35 -1 -71 -1 -80 -1 -17 1 -18 29 -21 394 -2
293 -3 214 -7 -315z"/>
<path d="M3177 4051 c3 -11 14 -28 25 -38 19 -17 52 -18 485 -21 l464 -3 29
30 c17 16 30 34 30 40 0 8 -155 11 -519 11 -508 0 -519 0 -514 -19z"/>
<path d="M3107 3813 c-2 -5 -3 -37 -3 -73 l1 -65 170 -3 c94 -1 164 -6 158
-10 -14 -9 5 -38 65 -98 17 -18 32 -37 32 -41 0 -4 20 -30 45 -57 25 -26 45
-51 45 -55 1 -3 21 -28 45 -55 25 -28 45 -54 45 -58 0 -5 5 -6 10 -3 6 3 10 0
10 -7 0 -7 18 -32 40 -56 22 -23 40 -45 40 -50 1 -4 23 -31 50 -61 28 -30 50
-58 50 -63 0 -5 5 -6 10 -3 6 3 10 0 10 -8 0 -8 18 -33 40 -56 22 -22 40 -46
40 -51 0 -6 3 -10 8 -10 6 0 63 189 208 688 11 38 20 52 34 52 14 0 20 13 29
63 6 35 11 69 11 75 0 9 -148 12 -594 12 -327 0 -597 -3 -599 -7z"/>
</g>
</svg>
